<?xml version="1.0" encoding="UTF-8"?>
<svg version="1.1" xmlns="http://www.w3.org/2000/svg" width="320" height="320">
<path d="M0 0 C8.37145082 -0.49244454 16.7366233 -0.86242401 25.11909008 -1.08805561 C29.0147777 -1.19652141 32.9003996 -1.34265238 36.7902832 -1.58422852 C64.33637633 -3.25028857 64.33637633 -3.25028857 73.68603516 4.55712891 C79.13683994 9.45204109 83.63938359 15.1405892 88 21 C90.78800588 24.46410341 93.55430323 27.66563653 97 30.5 C100.41348918 33.40401318 103.12809668 36.55371602 106 40 C107.31581441 41.18639004 108.65057606 42.35198262 110 43.5 C113.41348918 46.40401318 116.12809668 49.55371602 119 53 C120.29517178 54.16538421 121.6091722 55.31005353 122.9375 56.4375 C126.17394165 59.19334223 128.92111595 62.08105232 131.61328125 65.36328125 C132.95753176 66.94987551 134.37224124 68.37709177 135.875 69.8125 C138 72 138 72 138 74 C138.66 74 139.32 74 140 74 C140.66 75.98 141.32 77.96 142 80 C142.66 80 143.32 80 144 80 C145.19287411 83.87684087 146 86.91621923 146 91 C146.66 91 147.32 91 148 91 C148 96.94 148 102.88 148 109 C147.34 109 146.68 109 146 109 C145.855625 110.093125 145.71125 111.18625 145.5625 112.3125 C145 116 145 116 144 119 C143.34 119 142.68 119 142 119 C141.6596875 120.051875 141.6596875 120.051875 141.3125 121.125 C138.54287462 127.19179846 133.8903172 131.04187976 128.91015625 135.27734375 C126.31686322 137.61608041 124.22758567 140.31547368 122 143 C120.89263821 143.97866115 119.76630491 144.93614385 118.625 145.875 C115.14286062 148.73995494 112.33146116 151.97711611 109.48046875 155.4609375 C108.99191406 155.96882812 108.50335938 156.47671875 108 157 C107.34 157 106.68 157 106 157 C105.731875 157.639375 105.46375 158.27875 105.1875 158.9375 C104 161 104 161 101 162 C99.93324142 163.87794875 99.93324142 163.87794875 99 166 C95.52773991 170.74394771 91.33326911 174.52904002 86.87109375 178.31640625 C84.7847351 180.11306898 84.7847351 180.11306898 82.5 183 C79.89052512 186.13136986 77.09804269 188.60419049 73.96484375 191.19140625 C71.8665616 192.97752054 71.8665616 192.97752054 70.29571533 195.57756042 C68 198 68 198 64.93743896 198.60127258 C63.73830872 198.59016953 62.53917847 198.57906647 61.30371094 198.56762695 C60.30797058 198.56872215 60.30797058 198.56872215 59.29211426 198.56983948 C57.1053599 198.56636533 54.92075551 198.52751961 52.734375 198.48828125 C51.21552697 198.47895233 49.69666387 198.47183659 48.17779541 198.46684265 C44.18581386 198.44777854 40.19474619 198.39868435 36.203125 198.34332275 C32.12772993 198.29211668 28.05218675 198.26932581 23.9765625 198.24414062 C15.98395624 198.19056367 7.9920919 198.1052596 0 198 C0.84859485 193.46220591 3.51228165 191.14989571 6.75 188.0625 C7.2759375 187.55009766 7.801875 187.03769531 8.34375 186.50976562 C9.39113335 185.48960387 10.44124655 184.47223692 11.49414062 183.45776367 C13.68984404 181.33218891 15.84269868 179.1644447 18 177 C18.680625 176.33097656 19.36125 175.66195312 20.0625 174.97265625 C23.02805091 172.04895788 25.86355429 169.16714599 28.5 165.9375 C31.1221992 162.85641594 33.95042558 160.4016981 37.0234375 157.7890625 C39.4404751 155.6013091 41.43824625 153.19709332 43.50390625 150.68359375 C45.55947471 148.37040836 47.89844622 146.49601803 50.28125 144.53125 C52.04164397 142.96289901 53.50118557 141.31771111 55 139.5 C57.00982958 137.06254711 59.06254711 135.00982958 61.5 133 C64.56039014 130.47214471 67.05648426 127.72256826 69.58984375 124.67578125 C74.89848812 118.36717063 74.89848812 118.36717063 79 117 C79.495 115.515 79.495 115.515 80 114 C82.4375 111.3125 82.4375 111.3125 85 109 C85.66 109 86.32 109 87 109 C87.268125 108.4225 87.53625 107.845 87.8125 107.25 C89 105 89 105 90.6875 103.125 C92.27147399 100.99069424 92.27147399 100.99069424 91.9375 98 C90.88608877 94.63548408 89.57552067 93.32627673 87 91 C87 90.34 87 89.68 87 89 C86.39800781 88.73703125 85.79601562 88.4740625 85.17578125 88.203125 C82.8810142 86.93420534 81.78861649 85.79869084 80.1875 83.75 C78.11427399 81.22243982 76.02618721 79.07448486 73.5 77 C70.45655948 74.49049642 68.03476099 71.7549229 65.53125 68.71875 C63.96289901 66.95835603 62.31771111 65.49881443 60.5 64 C58.06254711 61.99017042 56.00982958 59.93745289 54 57.5 C52.00754657 55.08474478 49.98125793 53.05029883 47.5625 51.0625 C44.20345478 48.29535702 41.49413918 45.18240451 38.68359375 41.87109375 C36.88693102 39.7847351 36.88693102 39.7847351 34 37.5 C30.84636699 34.87197249 28.32861171 32.04953157 25.6796875 28.9296875 C24.20494513 27.23544859 22.68557568 25.67471633 21.0625 24.125 C19 22 19 22 19 20 C17.68 19.34 16.36 18.68 15 18 C15 17.34 15 16.68 15 16 C14.443125 15.773125 13.88625 15.54625 13.3125 15.3125 C10.33840412 13.62449964 8.27991135 11.53323483 6 9 C6 8.34 6 7.68 6 7 C4.68 6.34 3.36 5.68 2 5 C2 4.34 2 3.68 2 3 C1.34 3 0.68 3 0 3 C0 2.01 0 1.02 0 0 Z " fill="#ABABAB" transform="translate(30,61)"/>
<path d="M0 0 C0.62648437 0.37769531 1.25296875 0.75539062 1.8984375 1.14453125 C3.30998602 2.0292342 4.66319106 3.00596258 6 4 C6 4.66 6 5.32 6 6 C6.556875 6.20625 7.11375 6.4125 7.6875 6.625 C10.2481254 8.14753402 11.69116939 9.97907473 13.51953125 12.296875 C15.18834709 14.2166737 16.99575674 15.79533999 18.9375 17.4375 C22.15884036 20.17624255 24.825574 23.05740576 27.50390625 26.31640625 C29.55947471 28.62959164 31.89844622 30.50398197 34.28125 32.46875 C36.60531068 34.53927678 38.49249263 36.88451234 40.46875 39.28125 C42.03710099 41.04164397 43.68228889 42.50118557 45.5 44 C48.53917227 46.50598415 50.9620976 49.22989841 53.44921875 52.2734375 C55.58490907 54.65120859 58.02542286 56.53773273 60.58203125 58.4453125 C62 60 62 60 63 65 C40.89 65 18.78 65 -4 65 C-4 64.34 -4 63.68 -4 63 C-4.8353125 62.690625 -4.8353125 62.690625 -5.6875 62.375 C-8.2481254 60.85246598 -9.69116939 59.02092527 -11.51953125 56.703125 C-13.18834709 54.7833263 -14.99575674 53.20466001 -16.9375 51.5625 C-20.18263244 48.80444185 -22.87453361 45.89510874 -25.57421875 42.61328125 C-27.14514719 40.7524457 -27.14514719 40.7524457 -29.9375 38.5625 C-32.4562497 36.45497474 -34.39075385 34.48010261 -36.5 32 C-38.59003932 29.54328712 -40.50190289 27.58174759 -43 25.5 C-46.15004501 22.87496249 -48.61828272 20.04470733 -51.25390625 16.921875 C-52.8809777 15.13100441 -54.51847324 13.71297569 -56.4375 12.25 C-57.283125 11.5075 -58.12875 10.765 -59 10 C-59 8.68 -59 7.36 -59 6 C-58.34 6 -57.68 6 -57 6 C-57 5.34 -57 4.68 -57 4 C-39.98124791 -8.67353879 -18.19483083 -11.34621473 0 0 Z " fill="#C0C0C0" transform="translate(227,194)"/>
<path d="M0 0 C22.11 0 44.22 0 67 0 C65.88185466 5.59072671 65.88185466 5.59072671 62.25 8.4375 C59.67461208 10.55169256 57.65155459 12.41813449 55.5 15 C52.86966984 18.15639619 50.02478739 20.62816595 46.90625 23.28125 C44.79047716 25.10720529 44.79047716 25.10720529 42.5 28 C39.86966984 31.15639619 37.02478739 33.62816595 33.90625 36.28125 C31.79047716 38.10720529 31.79047716 38.10720529 29.5 41 C26.8708007 44.15503916 24.0277697 46.62591549 20.91015625 49.27734375 C18.31686322 51.61608041 16.22758567 54.31547368 14 57 C3.59107942 66.89094112 -7.75161296 72.27799838 -22.1875 72.16796875 C-27.18966132 71.86922856 -32.08505801 70.94583076 -37 70 C-37 69.34 -37 68.68 -37 68 C-37.78375 67.95875 -38.5675 67.9175 -39.375 67.875 C-44.47687671 66.64351252 -48.79594015 64.13227384 -53 61 C-53 60.34 -53 59.68 -53 59 C-53.66 59 -54.32 59 -55 59 C-54.75 57.125 -54.75 57.125 -54 55 C-52.67532254 54.3162955 -51.34136367 53.65035814 -50 53 C-49.31731862 51.67479497 -48.6492959 50.34187818 -48 49 C-46.515 48.505 -46.515 48.505 -45 48 C-44.31513275 46.67592331 -43.65129797 45.34090759 -43 44 C-41 41.75 -41 41.75 -39 40 C-38.34 40 -37.68 40 -37 40 C-36.75894531 39.43023437 -36.51789063 38.86046875 -36.26953125 38.2734375 C-34.75271334 35.55716666 -32.93237093 33.77554863 -30.6875 31.625 C-28.12586067 29.12862537 -25.64653055 26.6892444 -23.4375 23.875 C-20.82370168 20.79205839 -17.98052378 18.3339034 -14.91015625 15.72265625 C-12.31686322 13.38391959 -10.22758567 10.68452632 -8 8 C-6.19090053 6.37684652 -4.34285738 4.82509336 -2.453125 3.296875 C-0.86712389 2.04219297 -0.86712389 2.04219297 0 0 Z " fill="#C1C1C1" transform="translate(223,61)"/>
</svg>
